# xmcd
#
# Track frame offsets:
# 150
# 8842
# 21230
# 30407
# 40119
# 50440
# 62791
# 72263
# 82732
# 93791
# 104167
# 113694
# 131231
# 144886
# 156107
# 168158
# 185367
# 199388
# 209858
# 224734
# 241321
# 256042
#
# Disc length: 3596 seconds
#
# Revision: 0
# Processed by: cddbd v1.4PL0 Copyright (c) Steve Scherf et al.
# Submitted via: Axialis_AX_CDPlayer 2.6
#
DISCID=350e0a16
DTITLE=Chet Atkins - My favorite guitar - Progressive picking
DYEAR=1900
DGENRE=
TTITLE0=Levee walking
TTITLE1=Wimoweh
TTITLE2=One night Samba
TTITLE3=Moon of Manakoora
TTITLE4=Travelling
TTITLE5=Say it with soul
TTITLE6=Josephine
TTITLE7=Rose Ann
TTITLE8=Sukijaki
TTITLE9=It don't mean a thing
TTITLE10=El vequero
TTITLE11=Chopin waltz no. 10
TTITLE12=Gravy waltz
TTITLE13=Love letters
TTITLE14=Early time
TTITLE15=Satan's doll
TTITLE16=Summertime
TTITLE17=Kicky
TTITLE18=Jordu
TTITLE19=I remember you
TTITLE20=Bluesette
TTITLE21=So rare
EXTD=
EXTT0=
EXTT1=
EXTT2=
EXTT3=
EXTT4=
EXTT5=
EXTT6=
EXTT7=
EXTT8=
EXTT9=
EXTT10=
EXTT11=
EXTT12=
EXTT13=
EXTT14=
EXTT15=
EXTT16=
EXTT17=
EXTT18=
EXTT19=
EXTT20=
EXTT21=
PLAYORDER=
